<?xml version="1.0" encoding="UTF-8" standalone="no"?>
<svg
   xmlns:dc="http://purl.org/dc/elements/1.1/"
   xmlns:cc="http://creativecommons.org/ns#"
   xmlns:rdf="http://www.w3.org/1999/02/22-rdf-syntax-ns#"
   xmlns:svg="http://www.w3.org/2000/svg"
   xmlns="http://www.w3.org/2000/svg"
   xmlns:sodipodi="http://sodipodi.sourceforge.net/DTD/sodipodi-0.dtd"
   xmlns:inkscape="http://www.inkscape.org/namespaces/inkscape"
   width="210mm"
   height="297mm"
   viewBox="0 0 210 297"
   version="1.1"
   id="svg8"
   inkscape:version="1.0.2-2 (e86c870879, 2021-01-15)"
   sodipodi:docname="logo.svg">
  <defs
     id="defs2" />
  <sodipodi:namedview
     id="base"
     pagecolor="#ffffff"
     bordercolor="#666666"
     borderopacity="1.0"
     inkscape:pageopacity="0.0"
     inkscape:pageshadow="2"
     inkscape:zoom="0.49497475"
     inkscape:cx="357.33247"
     inkscape:cy="179.36266"
     inkscape:document-units="mm"
     inkscape:current-layer="layer1"
     inkscape:document-rotation="0"
     showgrid="false"
     inkscape:window-width="1350"
     inkscape:window-height="728"
     inkscape:window-x="0"
     inkscape:window-y="0"
     inkscape:window-maximized="0" />
  <metadata
     id="metadata5">
    <rdf:RDF>
      <cc:Work
         rdf:about="">
        <dc:format>image/svg+xml</dc:format>
        <dc:type
           rdf:resource="http://purl.org/dc/dcmitype/StillImage" />
        <dc:title></dc:title>
      </cc:Work>
    </rdf:RDF>
  </metadata>
  <g
     inkscape:label="Layer 1"
     inkscape:groupmode="layer"
     id="layer1">
    <path
       style="fill:#ffffff;stroke:#000000;stroke-width:0"
       id="path833"
       d="m 38.86673,152.41605 c 3.003018,-8.15827 6.286699,-16.20426 9.653596,-24.21792 3.164625,-7.36632 5.91277,-14.91351 9.607758,-22.03638 1.980679,-4.02083 4.276998,-7.864513 6.717221,-11.616749 0.379,-0.799584 0.927775,-1.482839 1.380747,-2.237394 0,0 -10.172475,4.505389 -10.172475,4.505389 v 0 c -0.431213,0.710305 -0.84458,1.430438 -1.242743,2.159936 -2.196081,3.701608 -4.13979,7.544968 -6.027573,11.411318 -3.519075,7.13331 -6.258134,14.59346 -9.255308,21.95555 -3.423616,8.21743 -6.669029,16.5188 -10.424075,24.59143 0,0 9.762852,-4.51518 9.762852,-4.51518 z" />
    <path
       style="fill:#ffffff;stroke:#000000;stroke-width:0"
       id="path835"
       d="m 54.955622,66.143875 c 0.191196,1.098777 0.169288,2.217713 0.26761,3.324955 0.185542,1.067591 0.39379,2.13083 0.627287,3.188906 0.357916,1.391399 0.636273,2.800242 0.917157,4.208606 0.164529,0.923189 0.343059,1.844315 0.575739,2.75277 0.158163,0.717888 0.277839,1.445334 0.382027,2.173247 0.120872,0.97781 0.151048,1.962706 0.164782,2.946808 0.0011,1.289878 0.01781,2.579632 0.02744,3.869449 0.01418,1.861031 0.02265,3.722296 0.04489,5.583253 0.0041,2.360779 0.02278,4.721445 0.0092,7.082221 -0.0041,1.58466 -0.02294,3.16924 -0.06079,4.75345 0,0 3.380353,-1.72238 3.380353,-1.72238 v 0 c -0.03829,-1.56354 -0.0567,-3.12748 -0.06082,-4.691486 -0.0137,-2.363946 0.0052,-4.727784 0.0096,-7.091736 0.02267,-1.876816 0.03189,-3.753905 0.04875,-5.630783 0.01111,-1.298548 0.03439,-2.597158 0.01246,-3.895751 -0.01278,-1.005486 0.01288,-2.016395 -0.14314,-3.01307 -0.103372,-0.745241 -0.187327,-1.499031 -0.386895,-2.225341 -0.252841,-0.888167 -0.447474,-1.791092 -0.637608,-2.694575 -0.310486,-1.402665 -0.642695,-2.801292 -0.905751,-4.213905 -0.206291,-1.05155 -0.415621,-2.103398 -0.590532,-3.160445 -0.114654,-1.117394 -0.133135,-2.242873 -0.20679,-3.363492 0,0 -3.474974,1.819299 -3.474974,1.819299 z" />
    <path
       style="fill:#ffffff;stroke:#000000;stroke-width:0"
       id="path837"
       d="m 55.452258,62.680008 c 0.06081,0.531728 0.142005,1.061519 0.182438,1.595183 0.06743,0.890035 0.100074,1.782395 0.141015,2.674041 0.145407,3.166663 0.280191,6.345139 0.212537,9.515649 -0.05079,2.380155 -0.166058,4.759341 -0.326699,7.134612 -0.17784,2.629582 -0.459021,5.251153 -0.688531,7.87673 -0.833382,8.536367 -1.929876,17.042967 -3.092931,25.539507 0,0 2.346632,-1.16552 2.346632,-1.16552 v 0 c 0.56611,-8.37984 1.257662,-16.750857 2.201902,-25.097702 0.600884,-5.467974 1.117251,-9.863002 1.590847,-15.314125 0.171206,-1.970572 0.318862,-3.943406 0.43733,-5.917854 0.188835,-3.147255 0.09686,-3.949845 0.299862,-6.836058 0.04187,-0.595336 0.121627,-1.187397 0.182439,-1.781098 0,0 -3.486841,1.776635 -3.486841,1.776635 z" />
    <path
       style="fill:#ffffff;stroke:#000000;stroke-width:0"
       id="path839"
       d="m 50.421021,79.04396 c 0.03613,0.629256 0.09841,1.257554 0.108402,1.887765 0.102172,6.444819 -0.250486,12.914998 -0.511042,19.350265 -0.449829,11.10988 -0.297289,7.69143 -0.934763,18.50213 0,0 1.193038,-0.60051 1.193038,-0.60051 v 0 c 0.116372,-2.95907 0.190659,-5.9201 0.34911,-8.87721 0.316391,-5.90466 0.827162,-12.571851 1.458156,-18.473927 0.616908,-5.770335 0.835959,-6.423734 1.493887,-11.441612 0.09054,-0.690478 0.157523,-1.383837 0.236284,-2.075757 0,0 -3.393072,1.728856 -3.393072,1.728856 z" />
    <path
       style="fill:#ffffff;stroke:#000000;stroke-width:0"
       id="path841"
       d="m 53.742579,57.680632 c -0.312666,3.436826 -0.437031,6.896012 -0.937998,10.310476 -0.931979,6.352109 -2.178738,12.65447 -3.357354,18.965471 -0.878758,4.705397 -7.043065,35.910401 -8.086881,41.204391 0,0 0.07214,-0.035 0.07214,-0.035 v 0 c 1.307492,-6.63131 2.620775,-13.26149 3.922472,-19.89394 1.393923,-7.10237 2.745221,-14.213135 4.164391,-21.310498 1.284523,-6.423988 2.526408,-12.857766 3.946601,-19.253131 0.837409,-3.770984 1.883117,-7.492677 2.824676,-11.239013 0,0 -2.548043,1.251244 -2.548043,1.251244 z" />
    <rect
       style="font-variation-settings:normal;opacity:1;vector-effect:none;fill:#00ffff;fill-opacity:1;fill-rule:evenodd;stroke-width:0.264583;stroke-linecap:butt;stroke-linejoin:miter;stroke-miterlimit:4;stroke-dasharray:none;stroke-dashoffset:0;stroke-opacity:1;stop-color:#000000;stop-opacity:1"
       id="rect896"
       width="156.35266"
       height="161.96533"
       x="3.7417734"
       y="24.455164" />
    <rect
       style="font-variation-settings:normal;opacity:1;vector-effect:none;fill:#005b79;fill-opacity:1;fill-rule:evenodd;stroke-width:0.25211;stroke-linecap:butt;stroke-linejoin:miter;stroke-miterlimit:4;stroke-dasharray:none;stroke-dashoffset:0;stroke-opacity:1;stop-color:#000000;stop-opacity:1"
       id="rect843"
       width="11.213645"
       height="74.483093"
       x="72.46312"
       y="52.687614"
       ry="0.034432128" />
    <rect
       style="font-variation-settings:normal;opacity:1;vector-effect:none;fill:#000080;fill-opacity:1;fill-rule:evenodd;stroke-width:0.264583;stroke-linecap:butt;stroke-linejoin:miter;stroke-miterlimit:4;stroke-dasharray:none;stroke-dashoffset:0;stroke-opacity:1;stop-color:#000000;stop-opacity:1"
       id="rect863"
       width="8.2853556"
       height="75.904549"
       x="137.05281"
       y="-10.025195"
       ry="0.033853702"
       transform="rotate(28.651491)" />
    <rect
       style="font-variation-settings:normal;opacity:1;vector-effect:none;fill:#000080;fill-opacity:1;fill-rule:evenodd;stroke-width:0.264583;stroke-linecap:butt;stroke-linejoin:miter;stroke-miterlimit:4;stroke-dasharray:none;stroke-dashoffset:0;stroke-opacity:1;stop-color:#000000;stop-opacity:1"
       id="rect865"
       width="8.5586824"
       height="74.047638"
       x="17.998922"
       y="106.04098"
       ry="0.033853702"
       transform="rotate(-42.742491)" />
    <rect
       style="font-variation-settings:normal;opacity:1;vector-effect:none;fill:#000080;fill-opacity:1;fill-rule:evenodd;stroke-width:0.264583;stroke-linecap:butt;stroke-linejoin:miter;stroke-miterlimit:4;stroke-dasharray:none;stroke-dashoffset:0;stroke-opacity:1;stop-color:#000000;stop-opacity:1"
       id="rect867"
       width="6.9490075"
       height="62.2738"
       x="-46.731064"
       y="59.84293"
       ry="0.033853702"
       transform="rotate(-41.089548)" />
    <rect
       style="font-variation-settings:normal;opacity:1;vector-effect:none;fill:#000080;fill-opacity:1;fill-rule:evenodd;stroke-width:0.264583;stroke-linecap:butt;stroke-linejoin:miter;stroke-miterlimit:4;stroke-dasharray:none;stroke-dashoffset:0;stroke-opacity:1;stop-color:#000000;stop-opacity:1"
       id="rect869"
       width="8.5526228"
       height="62.006527"
       x="80.878365"
       y="29.22024"
       ry="0"
       transform="rotate(30.414422)" />
    <rect
       style="font-variation-settings:normal;opacity:1;vector-effect:none;fill:#00ffff;fill-opacity:1;fill-rule:evenodd;stroke-width:0.264583;stroke-linecap:butt;stroke-linejoin:miter;stroke-miterlimit:4;stroke-dasharray:none;stroke-dashoffset:0;stroke-opacity:1;stop-color:#000000;stop-opacity:1"
       id="rect887"
       width="53.120209"
       height="17.244114"
       x="4.543582"
       y="110.64958" />
    <rect
       style="font-variation-settings:normal;opacity:1;vector-effect:none;fill:#00ffff;fill-opacity:1;fill-rule:evenodd;stroke-width:0.264583;stroke-linecap:butt;stroke-linejoin:miter;stroke-miterlimit:4;stroke-dasharray:none;stroke-dashoffset:0;stroke-opacity:1;stop-color:#000000;stop-opacity:1"
       id="rect889"
       width="5.2117562"
       height="5.8131142"
       x="-64.817543"
       y="97.94767"
       transform="rotate(-52.182702)" />
    <rect
       style="font-variation-settings:normal;opacity:1;vector-effect:none;fill:#00ffff;fill-opacity:1;fill-rule:evenodd;stroke-width:0.264583;stroke-linecap:butt;stroke-linejoin:miter;stroke-miterlimit:4;stroke-dasharray:none;stroke-dashoffset:0;stroke-opacity:1;stop-color:#000000;stop-opacity:1"
       id="rect891"
       width="8.5526247"
       height="8.15172"
       x="93.69783"
       y="58.877659"
       inkscape:transform-center-x="0.13885905"
       inkscape:transform-center-y="0.055145344"
       transform="rotate(41.774237)" />
  </g>
  <g
     inkscape:groupmode="layer"
     id="layer2"
     inkscape:label="Layer 2" />
</svg>
